# Made using Asset Forge (www.assetforge.io) version 1.3 

mtllib mag4.model.mtl 

v -0.09248 -0.2760091 -0.1305039
v -0.05984 -0.2 -0.1305039
v -0.09248 -0.2760091 0.1305039
v -0.05984 -0.2 0.1305039
v -0.09248 -0.1239909 -0.1305039
v -0.05984 -0.04798177 -0.1305039
v -0.09248 -0.1239909 0.1305039
v -0.05984 -0.04798177 0.1305039
v -0.09248 -0.4280273 -0.1305039
v -0.05984 -0.3520182 -0.1305039
v -0.09248 -0.4280273 0.1305039
v -0.05984 -0.3520182 0.1305039
v -0.09248 -0.2 0.1305039
v -0.09248 -0.2 -0.1305039
v -0.05984 -0.1239909 0.1305039
v -0.05984 -0.1239909 -0.1305039
v -0.05984 -0.2760091 0.1305039
v -0.05984 -0.2760091 -0.1305039
v -0.09248 -0.04798177 0.1305039
v -0.09248 -0.04798177 -0.1305039
v -0.05984 0.02802734 -0.1305039
v -0.05984 0.02802734 0.1305039
v -0.09248 -0.3520182 -0.1305039
v -0.09248 -0.3520182 0.1305039
v -0.09248 0.08016001 -0.17612
v -0.09248 -0.48016 -0.17612
v -0.09248 -0.48016 0.17612
v -0.09248 0.02802734 0.1305039
v -0.09248 0.08016001 0.17612
v -0.09248 0.02802734 -0.1305039
v 0 0.08016001 -0.17612
v 0 0.08016001 0.17612
v 0 -0.48016 -0.17612
v 0 -0.48016 0.17612
vn -0.7350894 0.3156637 0
vn 0 -0.8 0
vn 0 0 0.7
vn -0.8 0 0
vn 0 0 -0.7
vn 0 0.8 0
vn 0.8 0 0
vt -0.1305039 -0.2760091
vt -0.1305039 -0.2
vt 0.1305039 -0.2760091
vt 0.1305039 -0.2
vt -0.1305039 -0.1239909
vt -0.1305039 -0.04798178
vt 0.1305039 -0.1239909
vt 0.1305039 -0.04798178
vt -0.1305039 -0.4280274
vt -0.1305039 -0.3520182
vt 0.1305039 -0.4280274
vt 0.1305039 -0.3520182
vt 0.05984 -0.1305039
vt 0.05984 0.1305039
vt 0.09248 -0.1305039
vt 0.09248 0.1305039
vt -0.1305039 0.02802734
vt 0.1305039 0.02802734
vt -0.05984 -0.1239909
vt -0.09248 -0.2
vt -0.09248 -0.1239909
vt -0.17612 0.08016
vt -0.17612 -0.48016
vt 0.17612 -0.48016
vt -0.09248 0.02802734
vt -0.09248 -0.04798178
vt 0.17612 0.08016
vt -0.09248 -0.3520182
vt -0.09248 -0.4280274
vt -0.09248 -0.2760091
vt -0.05984 -0.2
vt 0.09248 -0.2760091
vt 0.09248 -0.3520182
vt 0.05984 -0.2760091
vt -0.05984 -0.3520182
vt 0 -0.17612
vt 0 0.17612
vt 0.09248 -0.17612
vt 0.09248 0.17612
vt 0 -0.48016
vt -0.09248 -0.48016
vt 0 0.08016
vt -0.09248 0.08016
vt -0.05984 -0.2760091
vt -0.05984 -0.04798178
vt 0.09248 -0.48016
vt 0.09248 0.08016
vt 0.09248 -0.2
vt 0.05984 -0.2
vt 0.09248 0.02802734
vt 0.09248 -0.04798178
vt 0.05984 0.02802734
vt 0.09248 -0.1239909
vt 0.05984 -0.1239909
vt -0.05984 0.02802734
vt 0.05984 -0.04798178
vt 0.09248 -0.4280274
vt 0.05984 -0.3520182

usemtl black (Instance)
usemap black (Instance)
f 3/3/1 2/2/1 1/1/1
f 2/2/1 3/3/1 4/4/1
f 7/7/1 6/6/1 5/5/1
f 6/6/1 7/7/1 8/8/1
f 11/11/1 10/10/1 9/9/1
f 10/10/1 11/11/1 12/12/1
f 13/15/2 2/14/2 4/13/2
f 2/14/2 13/15/2 14/16/2
f 7/15/2 16/14/2 15/13/2
f 16/14/2 7/15/2 5/16/2
f 3/15/2 18/14/2 17/13/2
f 18/14/2 3/15/2 1/16/2
f 19/15/2 6/14/2 8/13/2
f 6/14/2 19/15/2 20/16/2
f 19/8/1 21/17/1 20/6/1
f 21/17/1 19/8/1 22/18/1
f 13/4/1 16/5/1 14/2/1
f 16/5/1 13/4/1 15/7/1
f 24/12/1 18/1/1 23/10/1
f 18/1/1 24/12/1 17/3/1
f 24/15/2 10/14/2 12/13/2
f 10/14/2 24/15/2 23/16/2

usemtl blueSteel (Instance)
usemap blueSteel (Instance)
f 5/21/3 14/20/3 16/19/3
f 26/23/4 9/9/4 25/22/4
f 9/9/4 26/23/4 27/24/4
f 9/9/4 27/24/4 11/11/4
f 11/11/4 27/24/4 24/12/4
f 24/12/4 27/24/4 3/3/4
f 3/3/4 27/24/4 13/4/4
f 13/4/4 27/24/4 28/18/4
f 19/26/4 13/20/4 28/25/4
f 25/22/4 30/17/4 29/27/4
f 30/17/4 25/22/4 9/9/4
f 30/25/4 9/29/4 23/28/4
f 30/25/4 1/30/4 14/20/4
f 30/25/4 14/20/4 5/21/4
f 30/25/4 23/28/4 1/30/4
f 30/25/4 5/21/4 20/26/4
f 29/27/4 30/17/4 28/18/4
f 29/27/4 28/18/4 27/24/4
f 13/20/4 19/26/4 7/21/4
f 14/20/3 1/30/3 2/31/3
f 17/34/5 24/33/5 3/32/5
f 23/28/3 9/29/3 10/35/3
f 25/38/6 32/37/6 31/36/6
f 32/37/6 25/38/6 29/39/6
f 32/22/7 33/24/7 31/27/7
f 33/24/7 32/22/7 34/23/7
f 32/42/3 27/41/3 34/40/3
f 27/41/3 32/42/3 29/43/3
f 27/38/2 33/37/2 34/36/2
f 33/37/2 27/38/2 26/39/2
f 1/30/3 23/28/3 18/44/3
f 20/26/3 5/21/3 6/45/3
f 25/47/5 33/40/5 26/46/5
f 33/40/5 25/47/5 31/42/5
f 4/49/5 3/32/5 13/48/5
f 22/52/5 19/51/5 28/50/5
f 15/54/5 13/48/5 7/53/5
f 30/25/3 20/26/3 21/55/3
f 8/56/5 7/53/5 19/51/5
f 12/58/5 11/57/5 24/33/5
f 28/15/2 21/14/2 22/13/2
f 21/14/2 28/15/2 30/16/2
v 0.09248 -0.2760091 -0.1305039
v 0.05984 -0.2 -0.1305039
v 0.09248 -0.2760091 0.1305039
v 0.05984 -0.2 0.1305039
v 0.09248 -0.1239909 -0.1305039
v 0.05984 -0.04798175 -0.1305039
v 0.09248 -0.1239909 0.1305039
v 0.05984 -0.04798175 0.1305039
v 0.09248 -0.4280273 -0.1305039
v 0.05984 -0.3520182 -0.1305039
v 0.09248 -0.4280273 0.1305039
v 0.05984 -0.3520182 0.1305039
v 0.09248 -0.2 0.1305039
v 0.09248 -0.2 -0.1305039
v 0.05984 -0.1239909 0.1305039
v 0.05984 -0.1239909 -0.1305039
v 0.05984 -0.2760091 0.1305039
v 0.05984 -0.2760091 -0.1305039
v 0.09248 -0.04798177 0.1305039
v 0.09248 -0.04798177 -0.1305039
v 0.05984 0.02802734 -0.1305039
v 0.05984 0.02802734 0.1305039
v 0.09248 -0.3520182 -0.1305039
v 0.09248 -0.3520182 0.1305039
v 0.09248 0.08016001 -0.17612
v 0.09248 -0.48016 -0.17612
v 0.09248 -0.48016 0.17612
v 0.09248 0.02802734 0.1305039
v 0.09248 0.08016001 0.17612
v 0.09248 0.02802734 -0.1305039
vn 0.7350894 0.3156637 0
vt -0.05984 0.1305039
vt -0.05984 -0.1305039
vt -0.09248 0.1305039
vt -0.09248 -0.1305039
vt -0.09248 0.17612
vt -0.09248 -0.17612

usemtl black (Instance)
usemap black (Instance)
f 35/1/8 36/2/8 37/3/8
f 38/4/8 37/3/8 36/2/8
f 39/5/8 40/6/8 41/7/8
f 42/8/8 41/7/8 40/6/8
f 43/9/8 44/10/8 45/11/8
f 46/12/8 45/11/8 44/10/8
f 38/59/2 36/60/2 47/61/2
f 48/62/2 47/61/2 36/60/2
f 49/59/2 50/60/2 41/61/2
f 39/62/2 41/61/2 50/60/2
f 51/59/2 52/60/2 37/61/2
f 35/62/2 37/61/2 52/60/2
f 42/59/2 40/60/2 53/61/2
f 54/62/2 53/61/2 40/60/2
f 54/6/8 55/17/8 53/8/8
f 56/18/8 53/8/8 55/17/8
f 48/2/8 50/5/8 47/4/8
f 49/7/8 47/4/8 50/5/8
f 57/10/8 52/1/8 58/12/8
f 51/3/8 58/12/8 52/1/8
f 46/59/2 44/60/2 58/61/2
f 57/62/2 58/61/2 44/60/2

usemtl blueSteel (Instance)
usemap blueSteel (Instance)
f 50/19/3 48/20/3 39/21/3
f 59/22/7 43/9/7 60/23/7
f 61/24/7 60/23/7 43/9/7
f 45/11/7 61/24/7 43/9/7
f 58/12/7 61/24/7 45/11/7
f 37/3/7 61/24/7 58/12/7
f 47/4/7 61/24/7 37/3/7
f 62/18/7 61/24/7 47/4/7
f 62/50/7 47/48/7 53/51/7
f 63/27/7 64/17/7 59/22/7
f 43/9/7 59/22/7 64/17/7
f 57/33/7 43/57/7 64/50/7
f 48/48/7 35/32/7 64/50/7
f 39/53/7 48/48/7 64/50/7
f 35/32/7 57/33/7 64/50/7
f 54/51/7 39/53/7 64/50/7
f 62/18/7 64/17/7 63/27/7
f 61/24/7 62/18/7 63/27/7
f 41/53/7 53/51/7 47/48/7
f 36/31/3 35/30/3 48/20/3
f 37/32/5 58/33/5 51/34/5
f 44/35/3 43/29/3 57/28/3
f 31/37/6 32/36/6 59/63/6
f 63/64/6 59/63/6 32/36/6
f 31/27/4 33/24/4 32/22/4
f 34/23/4 32/22/4 33/24/4
f 34/40/3 61/41/3 32/42/3
f 63/43/3 32/42/3 61/41/3
f 34/37/2 33/36/2 61/63/2
f 60/64/2 61/63/2 33/36/2
f 52/44/3 57/28/3 35/30/3
f 40/45/3 39/21/3 54/26/3
f 60/46/5 33/40/5 59/47/5
f 31/42/5 59/47/5 33/40/5
f 47/48/5 37/32/5 38/49/5
f 62/50/5 53/51/5 56/52/5
f 41/53/5 47/48/5 49/54/5
f 55/55/3 54/26/3 64/25/3
f 53/51/5 41/53/5 42/56/5
f 58/33/5 45/57/5 46/58/5
f 56/59/2 55/60/2 62/61/2
f 64/62/2 62/61/2 55/60/2
v 0.1 -0.177249 -0.2
v 0.1 -0.5 -0.2
v 0.1 -0.177249 0.2
v 0.1 -0.5 0.2
v -0.5 -0.177249 -0.2
v -0.5 -0.177249 0.2
v -0.5 -0.5 -0.2
v -0.5 -0.5 0.2
v -0.4420632 -0.09999996 -0.2
v -0.4420632 -0.09999996 0.2
v 0.04206324 -0.09999996 -0.2
v 0.04206324 -0.09999996 0.2
vn 0.6 0 0
vn -0.6 0 0
vn 0 0 0.4
vn -0.424264 0.5656855 0
vn 0 0 -0.4
vn 0.424264 0.5656855 0
vt 0.2 -0.177249
vt 0.2 -0.5
vt -0.2 -0.177249
vt -0.2 -0.5
vt 0.1 -0.5
vt -0.5 -0.5
vt 0.1 -0.177249
vt -0.5 -0.177249
vt -0.2 -0.09999996
vt 0.2 -0.09999996
vt 0.5 -0.5
vt -0.1 -0.5
vt 0.5 -0.177249
vt -0.1 -0.177249
vt 0.4420632 -0.09999996
vt -0.04206324 -0.09999996
vt 0.04206324 -0.09999996
vt -0.4420632 -0.09999996
vt -0.04206324 -0.2
vt -0.04206324 0.2
vt 0.4420632 -0.2
vt 0.4420632 0.2
vt -0.1 -0.2
vt -0.1 0.2
vt 0.5 -0.2
vt 0.5 0.2

usemtl blueSteel (Instance)
usemap blueSteel (Instance)
f 67/67/9 66/66/9 65/65/9
f 66/66/9 67/67/9 68/68/9
f 71/68/10 70/65/10 69/67/10
f 70/65/10 71/68/10 72/66/10
f 67/71/11 72/70/11 68/69/11
f 72/70/11 67/71/11 70/72/11

usemtl blueSteel (Instance)
usemap blueSteel (Instance)
f 70/65/12 73/73/12 69/67/12
f 73/73/12 70/65/12 74/74/12
f 69/77/13 66/76/13 71/75/13
f 66/76/13 69/77/13 65/78/13
f 65/78/13 69/77/13 73/79/13
f 65/78/13 73/79/13 75/80/13
f 76/81/11 70/72/11 67/71/11
f 70/72/11 76/81/11 74/82/11
f 76/73/14 65/65/14 75/74/14
f 65/65/14 76/73/14 67/67/14
f 73/85/6 76/84/6 75/83/6
f 76/84/6 73/85/6 74/86/6
f 72/89/2 66/88/2 68/87/2
f 66/88/2 72/89/2 71/90/2
v -0.09999999 0.341 0.1
v -0.06925 0.3 0.1
v -0.1431715 0.3372272 0.1
v -0.1856044 0.3259733 0.1
v -0.2265725 0.3074309 0.1
v -0.265375 0.2819172 0.1
v -0.09999999 0.259 0.1
v -0.3013479 0.2498688 0.1
v -0.1351442 0.2559287 0.1
v -0.169687 0.2467674 0.1
v -0.3338756 0.2118341 0.1
v -0.2030375 0.2316728 0.1
v -0.234625 0.2109031 0.1
v -0.3624016 0.1684638 0.1
v -0.263909 0.1848139 0.1
v -0.2903885 0.1538513 0.1
v -0.3864379 0.1205 0.1
v -0.3136104 0.1185454 0.1
v -0.4055732 0.06876339 0.1
v -0.3331773 0.0795 0.1
v -0.3487546 0.03738336 0.1
v -0.41948 0.01413919 0.1
v -0.3600755 -0.007083967 0.1
v -0.4279204 -0.04243795 0.1
v -0.3669465 -0.05314109 0.1
v -0.43075 -0.1 0.1
v -0.36925 -0.1 0.1
v -0.4 -0.141 0.1
v -0.09999999 0.341 -0.125
v -0.1431715 0.3372272 -0.125
v -0.06925 0.3 -0.125
v -0.1856044 0.3259733 -0.125
v -0.2265725 0.3074309 -0.125
v -0.265375 0.2819172 -0.125
v -0.09999999 0.259 -0.125
v -0.3013479 0.2498688 -0.125
v -0.1351442 0.2559287 -0.125
v -0.169687 0.2467673 -0.125
v -0.3338756 0.2118341 -0.125
v -0.2030375 0.2316728 -0.125
v -0.234625 0.2109031 -0.125
v -0.3624016 0.1684638 -0.125
v -0.263909 0.1848139 -0.125
v -0.2903885 0.1538513 -0.125
v -0.3864379 0.1205 -0.125
v -0.3136104 0.1185454 -0.125
v -0.4055732 0.0687634 -0.125
v -0.3331773 0.0795 -0.125
v -0.3487546 0.03738336 -0.125
v -0.41948 0.01413918 -0.125
v -0.3600755 -0.007083967 -0.125
v -0.4279204 -0.04243795 -0.125
v -0.3669465 -0.05314109 -0.125
v -0.43075 -0.1 -0.125
v -0.36925 -0.1 -0.125
v -0.4 -0.141 -0.125
vn 0 0 0.9
vn 0 0 -0.9
vn -0.212132 -0.2828427 0
vn 0.212132 -0.2828427 0
vn 0.2993577 -0.02616126 0
vn 0.2982178 -0.04353575 0
vn 0.2965072 -0.06086035 0
vn 0.2914046 -0.09506363 0
vn 0.2880127 -0.1119423 0
vn 0.2796054 -0.1449649 0
vn 0.2745901 -0.1611088 0
vn 0.263022 -0.1923857 0
vn 0.2564692 -0.2075188 0
vn 0.2419383 -0.2365149 0
vn 0.2339601 -0.250378 0
vn 0.2121321 -0.2828427 0
vn 0.1773862 -0.3225844 0
vn 0.1877835 -0.3119468 0
vn 0.1442893 -0.3506961 0
vn 0.1556391 -0.341959 0
vn 0.1087237 -0.3728072 0
vn 0.1208316 -0.3661202 0
vn 0.07129773 -0.3885395 0
vn 0.08395671 -0.3840168 0
vn 0.03265181 -0.3976237 0
vn 0.04564526 -0.3953429 0
vn 0.01962094 -0.3991436 0
vn 0.212132 0.2828427 0
vn -0.01962092 0.3991436 0
vn -0.0326518 0.3976237 0
vn -0.04564527 0.3953429 0
vn -0.07129773 0.3885395 0
vn -0.08395671 0.3840168 0
vn -0.1087236 0.3728072 0
vn -0.1208316 0.3661202 0
vn -0.1442893 0.3506961 0
vn -0.1556391 0.341959 0
vn -0.1773862 0.3225844 0
vn -0.1877835 0.3119468 0
vn -0.2074479 0.2889532 0
vn -0.2167149 0.2765972 0
vn -0.2339601 0.250378 0
vn -0.2419383 0.2365149 0
vn -0.2598077 0.1999999 0
vn -0.2598076 0.2 0
vn -0.2796054 0.1449649 0
vn -0.2745901 0.1611088 0
vn -0.2914046 0.09506364 0
vn -0.2880127 0.1119423 0
vn -0.2982178 0.04353573 0
vn -0.2965072 0.06086036 0
vn -0.2993577 0.02616123 0
vt -0.09999999 0.341
vt -0.06925 0.3
vt -0.1431715 0.3372272
vt -0.1856044 0.3259733
vt -0.2265725 0.3074309
vt -0.265375 0.2819172
vt -0.09999999 0.259
vt -0.3013479 0.2498688
vt -0.1351442 0.2559287
vt -0.169687 0.2467674
vt -0.3338756 0.2118341
vt -0.2030375 0.2316727
vt -0.234625 0.2109031
vt -0.3624016 0.1684638
vt -0.263909 0.1848138
vt -0.2903885 0.1538513
vt -0.3864379 0.1205
vt -0.3136104 0.1185454
vt -0.4055732 0.0687634
vt -0.3331774 0.0795
vt -0.3487546 0.03738336
vt -0.41948 0.01413919
vt -0.3600755 -0.007083965
vt -0.4279204 -0.04243795
vt -0.3669465 -0.05314109
vt -0.43075 -0.1
vt -0.36925 -0.1
vt -0.4 -0.141
vt 0.09999999 0.341
vt 0.1431715 0.3372272
vt 0.06925 0.3
vt 0.1856044 0.3259733
vt 0.2265725 0.3074309
vt 0.265375 0.2819172
vt 0.09999999 0.259
vt 0.3013479 0.2498688
vt 0.1351442 0.2559287
vt 0.169687 0.2467674
vt 0.3338756 0.2118341
vt 0.2030375 0.2316727
vt 0.234625 0.2109031
vt 0.3624016 0.1684638
vt 0.263909 0.1848138
vt 0.2903885 0.1538513
vt 0.3864379 0.1205
vt 0.3136104 0.1185454
vt 0.4055732 0.0687634
vt 0.3331774 0.0795
vt 0.3487546 0.03738336
vt 0.41948 0.01413919
vt 0.3600755 -0.007083965
vt 0.4279204 -0.04243795
vt 0.3669465 -0.05314109
vt 0.43075 -0.1
vt 0.36925 -0.1
vt 0.4 -0.141
vt 0.1 -0.1
vt 0.1 -0.141
vt -0.125 -0.1
vt -0.125 -0.141
vt -0.1 -0.141
vt -0.1 -0.1
vt 0.125 -0.141
vt 0.125 -0.1
vt -0.1 -0.05314109
vt 0.125 -0.05314109
vt -0.1 -0.007083965
vt 0.125 -0.007083965
vt -0.1 0.03738336
vt 0.125 0.03738336
vt -0.1 0.0795
vt 0.125 0.0795
vt -0.1 0.1185454
vt 0.125 0.1185454
vt -0.1 0.1538513
vt 0.125 0.1538513
vt -0.1 0.1848138
vt 0.125 0.1848138
vt 0.234625 -0.1
vt 0.234625 0.125
vt 0.263909 -0.1
vt 0.263909 0.125
vt 0.2030375 -0.1
vt 0.2030375 0.125
vt 0.169687 -0.1
vt 0.169687 0.125
vt 0.1351442 -0.1
vt 0.1351442 0.125
vt 0.09999999 -0.1
vt 0.09999999 0.125
vt -0.1 0.3
vt 0.125 0.3
vt -0.1 0.259
vt 0.125 0.259
vt -0.1 0.341
vt 0.125 0.341
vt 0.09999999 0.1
vt 0.1431715 0.1
vt 0.09999999 -0.125
vt 0.1431715 -0.125
vt 0.1856044 0.1
vt 0.1856044 -0.125
vt 0.2265725 0.1
vt 0.2265725 -0.125
vt 0.265375 0.1
vt 0.265375 -0.125
vt 0.3013479 0.1
vt 0.3013479 -0.125
vt 0.1 0.2498688
vt 0.1 0.2118341
vt -0.125 0.2498688
vt -0.125 0.2118341
vt 0.1 0.1684638
vt -0.125 0.1684638
vt 0.1 0.1205
vt -0.125 0.1205
vt 0.1 0.0687634
vt -0.125 0.0687634
vt 0.1 0.01413919
vt -0.125 0.01413919
vt 0.1 -0.04243795
vt -0.125 -0.04243795

usemtl hilt
usemap hilt
f 79/93/15 78/92/15 77/91/15
f 78/92/15 79/93/15 80/94/15
f 78/92/15 80/94/15 81/95/15
f 78/92/15 81/95/15 82/96/15
f 78/92/15 82/96/15 83/97/15
f 83/97/15 82/96/15 84/98/15
f 83/97/15 84/98/15 85/99/15
f 85/99/15 84/98/15 86/100/15
f 86/100/15 84/98/15 87/101/15
f 86/100/15 87/101/15 88/102/15
f 88/102/15 87/101/15 89/103/15
f 89/103/15 87/101/15 90/104/15
f 89/103/15 90/104/15 91/105/15
f 91/105/15 90/104/15 92/106/15
f 92/106/15 90/104/15 93/107/15
f 92/106/15 93/107/15 94/108/15
f 94/108/15 93/107/15 95/109/15
f 94/108/15 95/109/15 96/110/15
f 96/110/15 95/109/15 97/111/15
f 97/111/15 95/109/15 98/112/15
f 97/111/15 98/112/15 99/113/15
f 99/113/15 98/112/15 100/114/15
f 99/113/15 100/114/15 101/115/15
f 101/115/15 100/114/15 102/116/15
f 101/115/15 102/116/15 103/117/15
f 103/117/15 102/116/15 104/118/15
f 107/121/16 106/120/16 105/119/16
f 106/120/16 107/121/16 108/122/16
f 108/122/16 107/121/16 109/123/16
f 109/123/16 107/121/16 110/124/16
f 110/124/16 107/121/16 111/125/16
f 110/124/16 111/125/16 112/126/16
f 112/126/16 111/125/16 113/127/16
f 112/126/16 113/127/16 114/128/16
f 112/126/16 114/128/16 115/129/16
f 115/129/16 114/128/16 116/130/16
f 115/129/16 116/130/16 117/131/16
f 115/129/16 117/131/16 118/132/16
f 118/132/16 117/131/16 119/133/16
f 118/132/16 119/133/16 120/134/16
f 118/132/16 120/134/16 121/135/16
f 121/135/16 120/134/16 122/136/16
f 121/135/16 122/136/16 123/137/16
f 123/137/16 122/136/16 124/138/16
f 123/137/16 124/138/16 125/139/16
f 123/137/16 125/139/16 126/140/16
f 126/140/16 125/139/16 127/141/16
f 126/140/16 127/141/16 128/142/16
f 128/142/16 127/141/16 129/143/16
f 128/142/16 129/143/16 130/144/16
f 130/144/16 129/143/16 131/145/16
f 130/144/16 131/145/16 132/146/16
f 130/149/17 104/148/17 102/147/17
f 104/148/17 130/149/17 132/150/17
f 132/153/18 103/152/18 104/151/18
f 103/152/18 132/153/18 131/154/18
f 131/154/19 101/155/20 103/152/19
f 101/155/20 131/154/19 129/156/21
f 129/156/21 99/157/22 101/155/20
f 99/157/22 129/156/21 127/158/23
f 127/158/23 97/159/24 99/157/22
f 97/159/24 127/158/23 125/160/25
f 125/160/25 96/161/26 97/159/24
f 96/161/26 125/160/25 124/162/27
f 124/162/27 94/163/28 96/161/26
f 94/163/28 124/162/27 122/164/29
f 122/164/29 92/165/30 94/163/28
f 92/165/30 122/164/29 120/166/18
f 92/165/30 119/168/32 91/167/31
f 119/168/32 92/165/30 120/166/18
f 91/171/31 117/170/34 89/169/33
f 117/170/34 91/171/31 119/172/32
f 89/169/33 116/174/36 88/173/35
f 116/174/36 89/169/33 117/170/34
f 88/173/35 114/176/38 86/175/37
f 114/176/38 88/173/35 116/174/36
f 86/175/37 113/178/40 85/177/39
f 113/178/40 86/175/37 114/176/38
f 85/177/39 111/180/41 83/179/41
f 111/180/41 85/177/39 113/178/40
f 83/183/18 107/182/18 78/181/18
f 107/182/18 83/183/18 111/184/18
f 107/182/42 77/185/42 78/181/42
f 77/185/42 107/182/42 105/186/42
f 105/189/43 79/188/44 77/187/43
f 79/188/44 105/189/43 106/190/45
f 106/190/45 80/191/46 79/188/44
f 80/191/46 106/190/45 108/192/47
f 108/192/47 81/193/48 80/191/46
f 81/193/48 108/192/47 109/194/49
f 109/194/49 82/195/50 81/193/48
f 82/195/50 109/194/49 110/196/51
f 110/196/51 84/197/52 82/195/50
f 84/197/52 110/196/51 112/198/53
f 112/201/53 87/200/54 84/199/52
f 87/200/54 112/201/53 115/202/55
f 115/202/55 90/203/56 87/200/54
f 90/203/56 115/202/55 118/204/57
f 118/204/57 93/205/58 90/203/56
f 93/205/58 118/204/57 121/206/59
f 93/205/58 123/208/61 95/207/60
f 123/208/61 93/205/58 121/206/59
f 95/207/60 126/210/63 98/209/62
f 126/210/63 95/207/60 123/208/61
f 98/209/62 128/212/65 100/211/64
f 128/212/65 98/209/62 126/210/63
f 100/211/64 130/149/66 102/147/66
f 130/149/66 100/211/64 128/212/65
